<svg height="512" viewBox="0 0 60 60" width="512" xmlns="http://www.w3.org/2000/svg"><g id="003---Blood-Transfusion" fill="none"><g id="Layer_2" transform="translate(1 1)"><path id="Shape" d="m20 17.11v15.89c0 3.43-.66 5.23-1.22 6.14-.5096793.8377505-.7794914 1.7993886-.78 2.78v14.08c-.0032948 1.1032019-.8967981 1.9967052-2 2h-9c-1.10320187-.0032948-1.9967052-.8967981-2-2v-12.93c-.00028119-1.3235245-.52531046-2.5929446-1.46-3.53l-2.08-2.08c-.93468953-.9370554-1.45971881-2.2064755-1.46-3.53v-4.93c0-1.6568542 1.34314575-3 3-3h1v-10.89c-.02037581-1.0626957.76519706-1.9691259 1.82-2.1.55841014-.04741 1.11125818.1404629 1.52516067.5182913s.651272.9113009.65483933 1.4717087v-.89c-.02037581-1.0626957.76519706-1.9691259 1.82-2.1.5584101-.04741 1.1112582.1404629 1.5251607.5182913s.651272.9113009.6548393 1.4717087v1c.0032948-1.1032019.8967981-1.9967052 2-2 1.1011688.0081672 1.9918328.8988312 2 2v2c.0035673-.5604078.2409368-1.0938803.6548393-1.4717087s.9667506-.5657013 1.5251607-.5182913c1.0548029.1308741 1.8403758 1.0373043 1.82 2.1z" fill="#ffe0b2"/><path id="Shape" d="m58 24.07v4.93c0 1.6568542-1.3431458 3-3 3h-1v10.89c.0203758 1.0626957-.7651971 1.9691259-1.82 2.1-.5584101.04741-1.1112582-.1404629-1.5251607-.5182913s-.651272-.9113009-.6548393-1.4717087v.89c.0203758 1.0626957-.7651971 1.9691259-1.82 2.1-.5584101.04741-1.1112582-.1404629-1.5251607-.5182913s-.651272-.9113009-.6548393-1.4717087v-1c-.0032948 1.1032019-.8967981 1.9967052-2 2-1.1011688-.0081672-1.9918328-.8988312-2-2v-2c-.0035673.5604078-.2409368 1.0938803-.6548393 1.4717087s-.9667506.5657013-1.5251607.5182913c-1.0548029-.1308741-1.8403758-1.0373043-1.82-2.1v-15.89c0-3.43.66-5.23 1.22-6.14.5096793-.8377505.7794914-1.7993886.78-2.78v-14.08c.0032948-1.10320187.8967981-1.9967052 2-2h9c1.1032019.0032948 1.9967052.89679813 2 2v12.93c.0002812 1.3235245.5253105 2.5929446 1.46 3.53l2.08 2.08c.9346895.9370554 1.4597188 2.2064755 1.46 3.53z" fill="#ffe0b2"/><path id="Shape" d="m56.54 20.54-2.08-2.08c-.9346895-.9370554-1.4597188-2.2064755-1.46-3.53v-12.93c-.0032948-1.10320187-.8967981-1.9967052-2-2h-3c1.1032019.0032948 1.9967052.89679813 2 2v12.93c.0002812 1.3235245.5253105 2.5929446 1.46 3.53l2.08 2.08c.9346895.9370554 1.4597188 2.2064755 1.46 3.53v4.93c0 1.6568542-1.3431458 3-3 3h-1v10.89c-.0012278.5119164-.1816682 1.007243-.51 1.4.034.039.063.083.1.119.4135291.4261362.9992172.6397834 1.59.58 1.0544158-.1308359 1.8398578-1.0366835 1.82-2.099v-10.89h1c1.6568542 0 3-1.3431458 3-3v-4.93c-.0002812-1.3235245-.5253105-2.5929446-1.46-3.53z" fill="#dfc49c"/><path id="Shape" d="m37.12 16.88c-.5616324-.5634227-1.3244649-.8800702-2.12-.88-.5522847 0-1-.4477153-1-1v-1c-.0032948-1.1032019-.8967981-1.9967052-2-2h-6c-1.1032019.0032948-1.9967052.8967981-2 2v1c0 .2652165-.1053568.5195704-.2928932.7071068s-.4418903.2928932-.7071068.2928932c-1.6568542 0-3 1.3431458-3 3v18c0 1.6568542 1.3431458 3 3 3h12c1.6568542 0 3-1.3431458 3-3v-18c.0000702-.7955351-.3165773-1.5583676-.88-2.12zm-3.12 18.12c0 .5522847-.4477153 1-1 1h-8c-.5522847 0-1-.4477153-1-1v-14c0-.5522847.4477153-1 1-1h8c.5522847 0 1 .4477153 1 1z" fill="#00bcd4"/><path id="Shape" d="m37.12 16.88c-.5616324-.5634227-1.3244649-.8800702-2.12-.88-.5522847 0-1-.4477153-1-1v-1c-.0032948-1.1032019-.8967981-1.9967052-2-2h-3c1.1032019.0032948 1.9967052.8967981 2 2v1c0 .2652165.1053568.5195704.2928932.7071068s.4418903.2928932.7071068.2928932c1.6568542 0 3 1.3431458 3 3v18c0 1.6568542-1.3431458 3-3 3h3c1.6568542 0 3-1.3431458 3-3v-18c.0000702-.7955351-.3165773-1.5583676-.88-2.12z" fill="#00838f"/><path id="Shape" d="m34 24v11c0 .5522847-.4477153 1-1 1h-8c-.5522847 0-1-.4477153-1-1v-11z" fill="#f44335"/><g fill="#02a9f4"><path id="Shape" d="m34 21v3h-10v-3c0-.5522847.4477153-1 1-1h8c.5522847 0 1 .4477153 1 1z"/><path id="Shape" d="m32 40v3c0 .5522847-.4477153 1-1 1h-4c-.5522847 0-1-.4477153-1-1v-3z"/></g></g><g id="Layer_3" fill="#000"><path id="Shape" d="m56.167 18.753c-.7453875-.7507293-1.1647106-1.7650814-1.167-2.823v-12.93c0-1.65685425-1.3431458-3-3-3h-9c-1.6568542 0-3 1.34314575-3 3v2h-7c-2.209139 0-4 1.790861-4 4v3h-2c-1.6568542 0-3 1.3431458-3 3v1c-.832119.0012619-1.6427403.2643552-2.317.752-.6435583-1.4452012-2.3119917-2.1261584-3.783-1.544-.2554199-.8833995-.8975935-1.6033544-1.7461752-1.9576751-.8485817-.3543208-1.8120487-.3047926-2.6198248.1346751-.5452686-.8658238-1.4979443-1.3898631-2.5211547-1.3868142-1.02321037.0030489-1.97274615.5327563-2.5128453 1.4018142-.94742337-.5346104-2.10924483-.5179728-3.04097126.0435477-.93172642.5615205-1.48915717 1.5810188-1.45902874 2.6684523v9.888c-2.209139 0-4 1.790861-4 4v4.93c.00381986 1.588025.63371571 3.1104829 1.753 4.237l2.08 2.08c.74538753.7507293 1.16471056 1.7650814 1.167 2.823v12.93c0 1.6568542 1.34314575 3 3 3h9c1.6568542 0 3-1.3431458 3-3v-1h7c2.209139 0 4-1.790861 4-4v-6h1c1.1045695 0 2-.8954305 2-2v-2c1.949 0 2.813.136 4-.556v.444c-.0232471 1.0069567.4558937 1.9595174 1.2782079 2.5411543.8223143.5816369 1.880073.7161515 2.8217921.3588457.2550945.8836323.8972406 1.6038536 1.7459453 1.9582257.8487046.3543722 1.8123419.3046371 2.6200547-.1352257.5449284.8657698 1.4970593 1.3901596 2.5200448 1.3879242s1.9728157-.5307811 2.5139552-1.3989242c.9474234.5346104 2.1092448.5179728 3.0409713-.0435477.9317264-.5615205 1.4891571-1.5810188 1.4590287-2.6684523v-9.888c2.209139 0 4-1.790861 4-4v-4.93c-.0038199-1.588025-.6337157-3.1104829-1.753-4.237zm-25.167-9.753c0-1.1045695.8954305-2 2-2h7c0 10.829.1 10.547-.275 11.572-.5904773-1.5450271-2.0709897-2.5672762-3.725-2.572v-1c0-1.6568542-1.3431458-3-3-3h-2zm-13 48c0 .5522847-.4477153 1-1 1h-9c-.55228475 0-1-.4477153-1-1v-12.93c-.00381986-1.588025-.63371571-3.1104829-1.753-4.237l-2.08-2.08c-.74538753-.7507293-1.16471056-1.7650814-1.167-2.823v-4.93c0-1.1045695.8954305-2 2-2v5c0 .5522847.44771525 1 1 1s1-.4477153 1-1v-16.888c-.02229914-.5466723.36700234-1.0239637.907-1.112.28041877-.0240377.55810069.0703749.7657519.2603577.20765122.1899828.32632005.4581967.3272481.7396423v12c0 .5522847.44771525 1 1 1s1-.4477153 1-1v-12.888c-.03945915-.4219293.189719-.8233436.5731239-1.0038485.3834049-.1805048.8388135-.1013901 1.1388761.1978485.1865985.1823963.2906276.4330776.288.694v13c0 .5522847.4477153 1 1 1s1-.4477153 1-1v-12c0-.5522847.4477153-1 1-1s1 .4477153 1 1v12c0 .5522847.4477153 1 1 1s1-.4477153 1-1v-10c-.001196-.281954.1166932-.5513108.3246334-.7417323.2079403-.1904214.4866061-.2842102.7673666-.2582677.5403973.0875855.9302306.5650025.908 1.112v15.888c0 3.2-.583 4.821-1.071 5.619-.6083593.9935185-.9298932 2.1360196-.929 3.301v11.08h-3c-1.1045695 0-2-.8954305-2-2v-2h1c.5522847 0 1-.4477153 1-1s-.4477153-1-1-1h-1v-3h1c.5522847 0 1-.4477153 1-1s-.4477153-1-1-1h-1v-1c0-.5522847-.4477153-1-1-1s-1 .4477153-1 1v1h-1c-.55228475 0-1 .4477153-1 1s.44771525 1 1 1h1v3h-1c-.55228475 0-1 .4477153-1 1s.44771525 1 1 1h1v2c0 2.209139 1.790861 4 4 4h3zm11-5c0 1.1045695-.8954305 2-2 2h-7v-11.08c.017177-.9087704.2925649-1.7938962.794-2.552.7484502 1.0227399 1.9386551 1.6286084 3.206 1.632h2v2c0 1.1045695.8954305 2 2 2h1zm3-8h-4v-2h4zm4-4h-12c-1.1045695 0-2-.8954305-2-2v-18c0-1.1045695.8954305-2 2-2s2-.8954305 2-2v-1c0-.5522847.4477153-1 1-1h6c.5522847 0 1 .4477153 1 1v1c0 1.1045695.8954305 2 2 2s2 .8954305 2 2v18c0 1.1045695-.8954305 2-2 2zm22-10c0 1.1045695-.8954305 2-2 2v-5c0-.5522847-.4477153-1-1-1s-1 .4477153-1 1v16.888c.0222991.5466723-.3670023 1.0239637-.907 1.112-.2804188.0240377-.5581007-.0703749-.7657519-.2603577s-.32632-.4581967-.3272481-.7396423v-12c0-.5522847-.4477153-1-1-1s-1 .4477153-1 1v12.888c.0394592.4219293-.189719.8233436-.5731239 1.0038485-.3834049.1805048-.8388135.1013901-1.1388761-.1978485-.1865985-.1823963-.2906276-.4330776-.288-.694v-13c0-.5522847-.4477153-1-1-1s-1 .4477153-1 1v12c0 .5522847-.4477153 1-1 1s-1-.4477153-1-1v-12c0-.5522847-.4477153-1-1-1s-1 .4477153-1 1v10c-.0009512.2812562-.1194843.5492976-.3269092.7392472-.2074249.1899495-.4848369.2844951-.7650908.2607528-.5403973-.0875855-.9302306-.5650025-.908-1.112v-15.888c0-3.2.583-4.821 1.071-5.619.6083593-.9935185.9298932-2.1360196.929-3.301v-10.08h3c1.1045695 0 2 .8954305 2 2v2h-1c-.5522847 0-1 .4477153-1 1s.4477153 1 1 1h1v3h-1c-.5522847 0-1 .4477153-1 1s.4477153 1 1 1h1v1c0 .5522847.4477153 1 1 1s1-.4477153 1-1v-1h1c.5522847 0 1-.4477153 1-1s-.4477153-1-1-1h-1v-3h1c.5522847 0 1-.4477153 1-1s-.4477153-1-1-1h-1v-2c0-2.209139-1.790861-4-4-4h-3v-2c0-.55228475.4477153-1 1-1h9c.5522847 0 1 .44771525 1 1v12.93c.0038199 1.588025.6337157 3.1104829 1.753 4.237l2.08 2.08c.7453875.7507293 1.1647106 1.7650814 1.167 2.823z"/><path id="Shape" d="m34 20h-8c-1.1045695 0-2 .8954305-2 2v14c0 1.1045695.8954305 2 2 2h8c1.1045695 0 2-.8954305 2-2v-14c0-1.1045695-.8954305-2-2-2zm0 2v2h-8v-2zm-8 14v-2h3c.5522847 0 1-.4477153 1-1s-.4477153-1-1-1h-3v-2.028h3c.5522847 0 1-.4477153 1-1s-.4477153-1-1-1h-3v-1.972h8v10z"/><circle id="Oval" cx="30" cy="17" r="1"/></g></g></svg>